<svg xmlns="http://www.w3.org/2000/svg" width="87" height="42" viewBox="0 0 87 42">
  <g fill="#F1A01A" fill-rule="evenodd">
    <path d="M1.67307692,9.66751749 L1.67307692,32.5126301 L40.2795658,40.0288855 C42.4062582,40.4429289 44.5937418,40.4429289 46.7204342,40.0288855 L85.3269231,32.5126301 L85.3269231,9.66751749 L46.4530564,1.95080833 C44.503655,1.56383978 42.496345,1.56383978 40.5469436,1.95080833 L1.67307692,9.66751749 Z M1.34495954,8.03918295 L40.2188262,0.322473788 C42.3848278,-0.107491263 44.6151722,-0.107491263 46.7811738,0.322473788 L85.6550405,8.03918295 C86.4370771,8.19442218 87,8.87594961 87,9.66751749 L87,32.5126301 C87,33.3065092 86.4338617,33.9893484 85.6489665,34.1421588 L47.0424777,41.6584142 C44.703116,42.1138619 42.296884,42.1138619 39.9575223,41.6584142 L1.3510335,34.1421588 C0.566138343,33.9893484 9.79536903e-17,33.3065092 0,32.5126301 L1.18879265e-15,9.66751749 C1.79946775e-15,8.87594961 0.562922906,8.19442218 1.34495954,8.03918295 Z"/>
    <path d="M10.0772336,28.2521127 C9.95660854,28.0605634 9.98073354,27.8211268 10.1254836,27.6535211 L11.3799839,26.384507 C11.6453589,26.1450704 11.886609,26.1929577 12.1037341,26.4084507 C12.4173591,26.743662 12.8998593,27.1746479 13.6959845,27.1746479 C14.6368597,27.1746479 15.6259849,26.4084507 15.6259849,24.756338 L15.6259849,13.4549296 C15.6259849,13.215493 15.818985,13 16.08436,13 L18.3521106,13 C18.6174857,13 18.8104857,13.215493 18.8104857,13.4549296 L18.8104857,24.756338 C18.8104857,28.084507 16.5668602,30 13.7442345,30 C11.6453589,30 10.4873587,28.7549296 10.0772336,28.2521127 Z M22.5016116,23.415493 L22.5016116,13.4549296 C22.5016116,13.215493 22.7187367,13 22.9599867,13 L25.2518623,13 C25.5172374,13 25.7102374,13.215493 25.7102374,13.4549296 L25.7102374,23.2478873 C25.7102374,25.2830986 27.1094877,26.8873239 29.2083633,26.8873239 C31.3072388,26.8873239 32.7306141,25.2830986 32.7306141,23.271831 L32.7306141,13.4549296 C32.7306141,13.215493 32.9236142,13 33.1889892,13 L35.4808648,13 C35.7221149,13 35.9392399,13.215493 35.9392399,13.4549296 L35.9392399,23.415493 C35.9392399,27.0549296 33.0201142,30 29.2083633,30 C25.4207373,30 22.5016116,27.0549296 22.5016116,23.415493 Z M38.4964905,29.3056338 L38.4964905,28.8746479 L45.6857423,15.9929577 L45.6857423,15.8971831 L39.6544908,15.8971831 C39.4132408,15.8971831 39.1961157,15.6816901 39.1961157,15.4422535 L39.1961157,13.4549296 C39.1961157,13.215493 39.4132408,13 39.6544908,13 L49.7387433,13 C49.9799934,13 50.1971184,13.215493 50.1971184,13.4549296 L50.1971184,13.7661972 L43.1043667,26.815493 L43.1043667,26.8633803 L49.2562432,26.8633803 C49.5216183,26.8633803 49.7146183,27.0788732 49.7146183,27.3183099 L49.7146183,29.3056338 C49.7146183,29.5450704 49.5216183,29.7605634 49.2562432,29.7605634 L38.9548657,29.7605634 C38.7136156,29.7605634 38.4964905,29.5450704 38.4964905,29.3056338 Z M53.0679941,29.3056338 L53.0679941,13.4549296 C53.0679941,13.215493 53.2609942,13 53.5263692,13 L63.3452466,13 C63.6106217,13 63.8036218,13.215493 63.8036218,13.4549296 L63.8036218,15.4183099 C63.8036218,15.6577465 63.6106217,15.8732394 63.3452466,15.8732394 L56.2042449,15.8732394 L56.2042449,19.8 L62.1631214,19.8 C62.4043714,19.8 62.6214965,20.015493 62.6214965,20.2549296 L62.6214965,22.2422535 C62.6214965,22.5056338 62.4043714,22.6971831 62.1631214,22.6971831 L56.2042449,22.6971831 L56.2042449,26.8873239 L63.3452466,26.8873239 C63.6106217,26.8873239 63.8036218,27.1028169 63.8036218,27.3422535 L63.8036218,29.3056338 C63.8036218,29.5450704 63.6106217,29.7605634 63.3452466,29.7605634 L53.5263692,29.7605634 C53.2609942,29.7605634 53.0679941,29.5450704 53.0679941,29.3056338 Z M67.2534976,29.3056338 L67.2534976,13.4549296 C67.2534976,13.215493 67.4464977,13 67.7118727,13 L69.9313733,13 C70.1726233,13 70.3897484,13.215493 70.3897484,13.4549296 L70.3897484,26.8873239 L76.5416249,26.8873239 C76.807,26.8873239 77,27.1028169 77,27.3422535 L77,29.3056338 C77,29.5450704 76.807,29.7605634 76.5416249,29.7605634 L67.7118727,29.7605634 C67.4464977,29.7605634 67.2534976,29.5450704 67.2534976,29.3056338 Z"/>
  </g>
</svg>
